<?xml version="1.0" encoding="UTF-8"?>
<svg id="Layer_2" data-name="Layer 2" xmlns="http://www.w3.org/2000/svg" viewBox="0 0 517.652 517.6537">
  <defs>
  </defs>
  <g id="Layer_1-2" data-name="Layer 1">
    <path class="cls-1" d="M232.3495,268.5671c1.1188,2.3168,2.055,4.8042,2.6095,7.3488.5545,2.5446.7273,5.1465.8211,7.7484.17,4.7143.0807,9.429.0534,14.1437s.0073,9.4292-.0077,14.1439c-27.2369-5.7498-56.0866-23.527-75.0408-48.7426-18.9543-25.2156-28.013-57.8695-25.9664-85.6314,39.9868,13.7115,75.8261,45.6152,94.3294,84.2913,1.0182,2.1284,1.984,4.2773,3.2015,6.6979ZM260.6037,411.7107c0-.1712.0002-.3423.0002-.5135,3.4786-7.0303,6.9636-14.0917,10.4385-21.1043,1.7374-3.5063,3.4724-7.0004,5.222-10.5655,1.7497-3.565,3.5141-7.201,5.4311-10.7966,10.0834-18.9124,24.3903-36.7071,40.4442-49.7048,16.0539-12.9978,33.855-21.1986,50.8271-24.0299-4.6494,24.0322-16.2247,48.5236-33.2303,68.3886-17.0057,19.8651-39.4418,35.104-62.331,43.4324-2.7762,1.0101-5.5589,1.9186-8.3555,2.7338-2.7965.8152-5.6068,1.5372-8.4464,2.1598ZM285.1847,218.1397c4.0994-18.3484,14.4454-37.1208,29.2157-51.2769,14.7703-14.1562,33.965-23.696,52.4708-27.0128-15.1417,34.5699-46.329,64.4856-81.4882,78.2053-.0664.0259-.1328.0518-.1983.0845ZM124.2325,445.9559c-21.4744-15.4045-41.8776-35.8713-58.0572-60.5659-16.1796-24.6946-28.1355-53.6171-33.8772-83.7441-2.8708-15.0635-4.1881-30.4282-3.9586-45.6965.2295-15.2683,2.0056-30.4403,5.0111-44.8145,6.0109-28.7483,16.9389-54.3054,31.8909-77.4374,14.952-23.132,33.9281-43.8389,57.6061-60.9951,23.678-17.1562,52.058-30.7615,81.9875-37.9683,29.9295-7.2067,61.4086-8.0148,90.283-3.5375,28.8743,4.4772,55.1438,14.2397,79.064,28.0667,23.9202,13.8268,45.491,31.7181,63.782,54.5043,18.291,22.7863,33.3021,50.4677,41.9952,79.9999,8.693,29.5322,11.0679,60.9152,8.0192,89.9959-3.0486,29.0808-11.5211,55.8593-24.1032,80.3612-12.5823,24.5019-29.2743,46.7271-51.1858,66.2842-10.9557,9.7786-23.2164,18.89-36.3325,26.7094-13.1161,7.8193-27.0876,14.3464-41.5735,19.377-28.972,10.061-60.0018,14.136-89.476,12.4409-29.4741-1.6952-57.3927-9.1605-81.4593-20.0805,23.7185.6054,49.029-8.8999,66.4857-24.9685,4.7808-.0887,9.5328-.3733,14.3068-.85s9.57-1.1458,14.1066-2.0132c1.0284-.1966,2.0435-.4035,3.052-.6104,1.0086-.2069,2.0107-.4138,3.0145-.6307,17.4413-3.7689,35.3788-10.5417,52.1335-20.4342,16.7547-9.8924,32.3266-22.9045,45.2332-38.1751,12.9065-15.2706,23.1476-32.7997,30.1042-50.9676,3.4784-9.0839,6.1356-18.3275,8.0184-27.5315.9414-4.602,1.6892-9.1941,2.2702-13.7563.5809-4.5622.995-9.0945,1.0917-13.5708.0065-.3007.0115-.6012-.0164-.9044-.0279-.3032-.0888-.6092-.161-.9159-.1443-.6134-.3339-1.2299-.5845-1.8336-.5011-1.2075-1.2466-2.3643-2.1779-3.3446-.9312-.9802-2.0481-1.7838-3.2288-2.3465-.5903-.2813-1.1966-.5024-1.8006-.6772-.3021-.0874-.6035-.1633-.9069-.208-.3033-.0447-.6086-.0584-.9144-.0699-3.2321-.1212-6.5348-.0021-9.8543.213-3.3195.2151-6.6557.5262-10.001.9574-6.6904.8624-13.4169,2.2051-20.0922,4.0401-13.3506,3.67-26.4968,9.3091-38.4982,16.7298-24.0027,14.8413-43.4261,36.8086-54.8,60.255.0118-8.0602-.0128-16.121.0199-24.1809.0164-4.0299.0471-8.0597-.0057-12.0907s-.189-8.0635-.0111-12.0408c.2544-5.688,1.1513-11.2632,2.8856-16.7743,1.7343-5.5111,4.3061-10.958,7.5825-15.9159,3.2764-4.9578,7.2574-9.4265,11.6839-13.2004,2.2133-1.887,4.5379-3.6003,6.9284-5.1407,1.1953-.7703,2.407-1.4973,3.6352-2.1567,1.2281-.6595,2.4727-1.2513,3.7222-1.8257,2.9592-1.3602,5.9468-2.6223,8.9049-4.0046,2.9582-1.3823,5.8868-2.8849,8.7859-4.4707,5.7982-3.1715,11.4778-6.6759,16.9805-10.5173,11.0053-7.6827,21.3027-16.7133,30.4123-26.7968,18.2192-20.167,31.6877-44.5455,38.9632-69.3422.8228-4.3046-.2943-9.0057-2.9423-12.5692-2.648-3.5635-6.8268-5.9894-11.1858-6.4435-35.5759-.6019-71.6279,14.8419-96.4795,40.9481-24.8516,26.1061-38.5027,62.8745-36.151,98.3777-12.2612-25.3023-31.1104-49.0458-54.3075-67.3936-11.5985-9.1739-24.284-16.9989-37.4857-23.2556-6.6009-3.1283-13.3308-5.8645-20.1269-8.1933-3.398-1.1644-6.8126-2.2269-10.2382-3.21s-6.8622-1.8867-10.2727-2.5471c-.3092-.0598-.6182-.1177-.9303-.1438-.3121-.0261-.6274-.0204-.946-.0036-.6372.0334-1.2878.1108-1.9365.2504-1.2974.279-2.5872.8063-3.7392,1.5476s-2.1663,1.6966-2.9582,2.7616c-.3959.5325-.7362,1.0923-1.03,1.6589-.1469.2833-.2821.5682-.389.8622s-.1855.5969-.2615.9015c-.6115,2.4505-1.0541,5.0025-1.4512,7.5648-.3971,2.5623-.7487,5.135-1.0353,7.7261-.5732,5.1823-.8863,10.4384-.9366,15.721-.1006,10.5651.8502,21.2355,2.8907,31.725,2.0405,10.4894,5.1708,20.7979,9.1681,30.5094,3.9973,9.7115,8.8616,18.8262,14.6478,27.4591,11.5724,17.2659,26.8325,32.6046,44.6055,44.324,17.7731,11.7194,38.0591,19.8193,58.2003,23.5187-.0075,4.2762-.0091,8.5229-.02,12.8159-.0054,2.1466-.0132,4.3047-.0074,6.3953s.0249,4.1137-.0296,6.1388c-.2691,9.9917-2.3327,20.0334-6.5209,29.7599-4.1881,9.7265-10.5007,19.1379-18.4702,26.8493-7.9695,7.7114-17.596,13.7228-27.4513,17.563-9.8552,3.8402-19.9391,5.5092-29.9756,5.6128-2.3348.0241-4.6671-.0365-7.0705-.0604-2.4034-.0239-4.878-.011-7.3404-.0045-4.9247.013-9.8005.0008-14.7074.0047ZM258.826.0002c-30.4324-.041-63.4423,5.5203-95.2725,18.1727-31.8302,12.6523-62.4809,32.3959-87.7559,57.5848-12.6376,12.5945-23.9312,26.5503-33.6078,41.4367s-17.7362,30.7034-24.0354,46.5346C5.5561,195.3915-.0009,227.1109,0,258.827c.0009,31.716,5.5596,63.4285,18.1521,95.1021,6.2962,15.8368,14.3509,31.6638,24.0377,46.5304,9.6869,14.8667,21.0059,28.7729,33.6186,41.3857,12.6127,12.6127,26.519,23.9319,41.3855,33.6187,14.8665,9.6868,30.6933,17.7413,46.5301,24.0377,31.6737,12.5925,63.3879,18.1522,95.102,18.1522s63.4283-5.5597,95.1021-18.1522c15.8369-6.2963,31.6635-14.3508,46.5301-24.0377,14.8665-9.6869,28.7728-21.006,41.3855-33.6187,12.6127-12.6127,23.9318-26.519,33.6186-41.3857,9.6868-14.8666,17.7415-30.6937,24.0377-46.5304,12.5925-31.6736,18.1512-63.3861,18.152-95.1021.001-31.716-5.556-63.4355-18.1544-95.0979-6.2992-15.8312-14.3588-31.6482-24.0353-46.5346s-20.9703-28.8422-33.6078-41.4367c-25.2751-25.1889-55.9257-44.9325-87.7559-57.5848C322.2683,5.5205,289.2585-.0407,258.826.0002Z"/>
  </g>
</svg>